# xmcd
#
# Track frame offsets:
#	150
#	27383
#	41770
#	62568
#	79257
#	97256
#	115005
#	129920
#	149562
#	167449
#	184157
#	204733
#	221318
#	243944
#	254862
#	268747
#	278772
#	298154
#	317827
#	340455
#
# Disc length: 4792 seconds
#
# Revision: 0
# Processed by: cddbd v1.5.2PL0 Copyright (c) Steve Scherf et al.
# Submitted via: EasyCDDAExtractor 10.0.4.1
#
DISCID=3f12b614
DTITLE=Various Artist - Skitz Rocks
DYEAR=2007
DGENRE=Dance/Electronic
TTITLE0=Nick Skitz - Skitz Rockin Megamix (Various Artists)
TTITLE1=Boogie Pimps - Somebody To Love (Saltshaker Remix)
TTITLE2=The Warp Brothers - Smells Like Teen Spirit (Short Mix)
TTITLE3=Nick Skitz - Headbangerz Rock Da Club (Full On Radio Mixx)
TTITLE4=DJ Sputnik - All The Things She Said (Club Mix)
TTITLE5=Groove Coverage - Poison
TTITLE6=Skam - The Final Countdown (Original Skam Mix)
TTITLE7=Club Robbers - White Stripes
TTITLE8=Scooter - Ramp! (The Logical Song) (Radio Edit)
TTITLE9=Nick Skitz - Guitar Damage (Clubb Radio)
TTITLE10=Starsplash - Cold As Ice (Radio Edit)
TTITLE11=Alex Fakey - Painted Black (Syntone Edit)
TTITLE12=Brooklyn Bounce - Sex, Bass and Rock 'N' Roll (Single Edit)
TTITLE13=Black Spider - Save Your Life! (Warp Brothers Radio Edit)
TTITLE14=The Hose - Rockmania (Hardstyle Rock Mix)
TTITLE15=Alex Butcher - Sweet Dreams (Radio Edit)
TTITLE16=Index - Glory Of Love (Radio Mix)
TTITLE17=DJ Visage - Rock That Sound (Original Radio Version)
TTITLE18=Clokx - Clokx (Radio Edit)
TTITLE19=Nick Skitz Vs The Choirboys - Run To Paradise (Skitz Airplay Edit)
EXTD=
EXTT0=
EXTT1=
EXTT2=
EXTT3=
EXTT4=
EXTT5=
EXTT6=
EXTT7=
EXTT8=
EXTT9=
EXTT10=
EXTT11=
EXTT12=
EXTT13=
EXTT14=
EXTT15=
EXTT16=
EXTT17=
EXTT18=
EXTT19=
PLAYORDER=
